<svg width="18" height="18" viewBox="0 0 18 18" fill="none" xmlns="http://www.w3.org/2000/svg">
<path d="M17.3203 7.93603L13.7969 11.011L14.8523 15.5892C14.9082 15.8285 14.8923 16.079 14.8065 16.3093C14.7208 16.5396 14.5691 16.7396 14.3703 16.8841C14.1716 17.0287 13.9346 17.1114 13.6891 17.1221C13.4436 17.1327 13.2003 17.0707 12.9898 16.9438L8.99688 14.522L5.0125 16.9438C4.80201 17.0707 4.55879 17.1327 4.31326 17.1221C4.06773 17.1114 3.83078 17.0287 3.63203 16.8841C3.43328 16.7396 3.28155 16.5396 3.19582 16.3093C3.11009 16.079 3.09415 15.8285 3.15 15.5892L4.20391 11.0157L0.67969 7.93603C0.49329 7.77526 0.358504 7.56304 0.292233 7.32598C0.225963 7.08892 0.231158 6.83757 0.307168 6.60345C0.383177 6.36933 0.526617 6.16287 0.719501 6.00994C0.912384 5.85702 1.14612 5.76445 1.39141 5.74384L6.03672 5.34149L7.85 1.01649C7.94469 0.789554 8.10441 0.595704 8.30905 0.459352C8.51369 0.323 8.7541 0.250244 9 0.250244C9.2459 0.250244 9.48631 0.323 9.69095 0.459352C9.89559 0.595704 10.0553 0.789554 10.15 1.01649L11.9688 5.34149L16.6125 5.74384C16.8578 5.76445 17.0915 5.85702 17.2844 6.00994C17.4773 6.16287 17.6207 6.36933 17.6967 6.60345C17.7728 6.83757 17.7779 7.08892 17.7117 7.32598C17.6454 7.56304 17.5106 7.77526 17.3242 7.93603H17.3203Z" fill="#FFF61A"/>
</svg>
